<svg xmlns="http://www.w3.org/2000/svg" viewBox="0 0 512 512" width="512" height="512">
  <rect width="512" height="512" rx="128" fill="#000000"/>
  
  <!-- Left Horn -->
  <path d="M 120 180 C 80 140, 60 70, 110 50 C 130 90, 150 130, 160 170 Z" fill="#FFFFFF" stroke="#FACC15" stroke-width="8" stroke-linejoin="round"/>
  
  <!-- Right Horn -->
  <path d="M 392 180 C 432 140, 452 70, 402 50 C 382 90, 362 130, 352 170 Z" fill="#FFFFFF" stroke="#FACC15" stroke-width="8" stroke-linejoin="round"/>
  
  <!-- Viking Helmet Base -->
  <path d="M 140 180 C 140 120, 372 120, 372 180 C 372 200, 140 200, 140 180 Z" fill="#FACC15" stroke="#000000" stroke-width="6"/>
  <rect x="236" y="115" width="40" height="75" rx="6" fill="#FFFFFF" stroke="#000000" stroke-width="4"/>
  
  <!-- Smiley Face Base (Yellow Circle) -->
  <circle cx="256" cy="310" r="140" fill="#FACC15" stroke="#FFFFFF" stroke-width="10"/>
  
  <!-- Smiley Eyes -->
  <circle cx="206" cy="280" r="18" fill="#000000"/>
  <circle cx="306" cy="280" r="18" fill="#000000"/>
  <circle cx="212" cy="274" r="6" fill="#FFFFFF"/>
  <circle cx="312" cy="274" r="6" fill="#FFFFFF"/>
  
  <!-- Viking Mustache / Big Smile -->
  <path d="M 180 330 Q 256 390 332 330" fill="none" stroke="#000000" stroke-width="16" stroke-linecap="round"/>
  <path d="M 170 320 C 190 350, 230 360, 256 345 C 282 360, 322 350, 342 320 C 310 375, 202 375, 170 320 Z" fill="#000000"/>
</svg>
